<?xml version="1.0" encoding="utf-8"?>
<!-- Generator: Adobe Illustrator 18.1.1, SVG Export Plug-In . SVG Version: 6.00 Build 0)  -->
<!DOCTYPE svg PUBLIC "-//W3C//DTD SVG 1.1//EN" "http://www.w3.org/Graphics/SVG/1.1/DTD/svg11.dtd">
<svg version="1.1" id="Layer_1" xmlns="http://www.w3.org/2000/svg" xmlns:xlink="http://www.w3.org/1999/xlink" x="0px" y="0px"
	 viewBox="0 0 180 180" enable-background="new 0 0 180 180" xml:space="preserve">
<path fill="#FAAC32" d="M164.5,99.2c0.1-7-10.1-21.5-18.8-32.4C137.2,56,125.9,43,120.3,42.1c-7.3-1.2-12.2,3-14,5.7l8.3,5.5
	l-0.1,0.1c0.2-0.3,1.4-1.7,3.7-1.5c2.4,1.4,10.5,9.5,20.2,21.9c8.8,11.2,13.4,18.9,15.2,22.8c-6-5.7-15.4-7.1-22.7-7.1
	c-8.4,0-22.4,0.3-29.4,4.9C92.4,89.5,83.8,91,77.7,94c-7.1-4.3-20.6-4.5-28.7-4.5c-7.2,0-16.7,1.4-22.7,7
	c1.8-3.9,6.4-11.6,15.1-22.7c9.7-12.4,17.8-20.5,20.2-21.9c2.3-0.2,3.5,1.2,3.7,1.5l-0.1-0.1l8.3-5.5c-1.8-2.7-6.7-6.9-14-5.7
	C54.1,43,42.8,56,34.3,66.8c-8.6,10.9-18.9,25.4-18.8,32.4c0.1,5.4,2.6,10.8,5.2,15c1.2,10.4,9,24.3,21.3,24.3
	c28.4,0,39.6-23.6,40.4-35.6c3.4-1.7,8.8-2.9,15.2,0.8c1.2,12.2,12.6,34.9,40.4,34.9c12.4,0,20.1-13.9,21.3-24.3
	C161.9,110,164.4,104.6,164.5,99.2z"/>
</svg>
