<?xml version="1.0" encoding="utf-8"?>
<!-- Generator: Adobe Illustrator 18.1.1, SVG Export Plug-In . SVG Version: 6.00 Build 0)  -->
<!DOCTYPE svg PUBLIC "-//W3C//DTD SVG 1.1//EN" "http://www.w3.org/Graphics/SVG/1.1/DTD/svg11.dtd">
<svg version="1.1" id="Layer_1" xmlns="http://www.w3.org/2000/svg" xmlns:xlink="http://www.w3.org/1999/xlink" x="0px" y="0px"
	 viewBox="0 0 180 180" enable-background="new 0 0 180 180" xml:space="preserve">
<path fill="#F24E72" d="M138.5,45.2c0-17.4-20-31-45.5-31s-45.5,13.6-45.5,31c0,13,11.2,23.9,27.6,28.6l8.7,15.8
	C80.5,97.9,68,130.5,68,138.8c0,9.5,20.5,27,25,27s27.5-20,27.5-26c0-5.1-14.6-41.6-18.8-52.1l11-14.4
	C128.1,68.4,138.5,57.8,138.5,45.2z M57.5,45.2c0-11.4,16.3-21,35.5-21s35.5,9.6,35.5,21s-16.3,21-35.5,21S57.5,56.6,57.5,45.2z"/>
</svg>
