<?xml version="1.0" encoding="utf-8"?>
<!-- Generator: Adobe Illustrator 18.1.1, SVG Export Plug-In . SVG Version: 6.00 Build 0)  -->
<!DOCTYPE svg PUBLIC "-//W3C//DTD SVG 1.1//EN" "http://www.w3.org/Graphics/SVG/1.1/DTD/svg11.dtd">
<svg version="1.1" id="Layer_1" xmlns="http://www.w3.org/2000/svg" xmlns:xlink="http://www.w3.org/1999/xlink" x="0px" y="0px"
	 viewBox="0 0 180 180" enable-background="new 0 0 180 180" xml:space="preserve">
<g>
	<path fill="#26BEC1" d="M132.1,68.5c-10.2,0-18.6,8.3-18.6,18.6c0,3,0.7,5.8,2,8.3c-1,0.6-2.1,1.3-3.3,2.2
		c-6.4,4.9-12.1,12.1-16.8,21.5c-3.2,6.3-3.3,13.4-3.4,19.7c-0.1,5.7-0.2,11.1-2.7,13.3c-1.8,1.6-5.5,2.2-10.9,1.6
		c-4.2-0.4-5.5-2.2-5.9-2.8c-3.6-4.9-0.9-16.9,1.1-25.6c1-4.3,1.8-8.2,2.2-11.5c0.3-0.1,0.7-0.3,1-0.5
		c22.2-15.2,34.5-31.4,36.5-48.3c1.6-13.2-4.1-21.8-4.3-22.2c-1.4-2.1-4.3-2.7-6.4-1.3c-2.1,1.4-2.7,4.3-1.3,6.4
		c0.2,0.3,16.5,25.6-28.8,57c-0.6-0.2-1.2-0.2-1.9-0.1C25.9,73.8,41.2,49,41.9,47.9c1.4-2.1,0.8-5-1.3-6.4c-2.1-1.4-5-0.9-6.4,1.3
		c-0.2,0.4-5.9,8.9-4.3,22.2c2,16.9,14.3,33.1,36.5,48.3c0,0,0.1,0.1,0.1,0.1c-0.3,2.8-1.2,6.5-1.9,9.9C61.9,134.8,59,148,65,156.3
		c2.7,3.8,7,6,12.5,6.6c1.6,0.2,3.1,0.2,4.5,0.2c5.9,0,10.4-1.4,13.5-4.2c5.5-4.9,5.7-12.6,5.8-20c0.1-5.5,0.2-11.3,2.4-15.7
		c6.9-13.8,14.6-19,18-20.7c3,2,6.5,3.1,10.3,3.1c10.2,0,18.6-8.3,18.6-18.6S142.3,68.5,132.1,68.5z M132.1,96.4
		c-5.1,0-9.3-4.2-9.3-9.3c0-5.1,4.2-9.3,9.3-9.3c5.1,0,9.3,4.2,9.3,9.3C141.4,92.2,137.2,96.4,132.1,96.4z"/>
	
		<ellipse transform="matrix(0.5943 0.8043 -0.8043 0.5943 46.5727 -28.2871)" fill="#26BEC1" cx="51.3" cy="32" rx="8.7" ry="11.1"/>
	
		<ellipse transform="matrix(-0.5943 0.8043 -0.8043 -0.5943 171.2222 -22.3414)" fill="#26BEC1" cx="91.2" cy="32" rx="8.7" ry="11.1"/>
</g>
</svg>
