<?xml version="1.0" encoding="utf-8"?>
<!-- Generator: Adobe Illustrator 18.1.1, SVG Export Plug-In . SVG Version: 6.00 Build 0)  -->
<!DOCTYPE svg PUBLIC "-//W3C//DTD SVG 1.1//EN" "http://www.w3.org/Graphics/SVG/1.1/DTD/svg11.dtd">
<svg version="1.1" id="Layer_1" xmlns="http://www.w3.org/2000/svg" xmlns:xlink="http://www.w3.org/1999/xlink" x="0px" y="0px"
	 viewBox="0 0 180 180" enable-background="new 0 0 180 180" xml:space="preserve">
<g>
	<path fill="#00A1DE" d="M98.3,71H79.7c-9.2,7.4-12.9,22.3-14.2,34.2c5.3,6.9,9,16.2,9,28.8H105c0-10.1,3.1-18.2,7.8-24.7
		C112,98,109.1,79.7,98.3,71z"/>
	<polygon fill="#00A1DE" points="156,61 156,52 24,52 24,61 77.9,61 	"/>
	<path fill="#00A1DE" d="M121.8,99.8c14.9-12,34.2-15.3,34.2-15.3V71h-44.3C117.6,79.6,120.5,90.5,121.8,99.8z"/>
	<path fill="#00A1DE" d="M24,71v15c0,0,18.1,0.4,32.6,10.7c1.5-8.5,4.4-18,9.7-25.7H24z"/>
</g>
</svg>
